# xmcd
#
# Track frame offsets:
# 150
# 6660
# 16622
# 34400
# 41077
#
# Disc length: 643 seconds
#
# Revision: 0
# Processed by: cddbd v1.5.1PL0 Copyright (c) Steve Scherf et al.
# Submitted via: Audion 3.0.2 (http://www.panic.com/audion/)
#
DISCID=38028105
DTITLE=Damien Jurado - Just in Time for Something
DYEAR=1900
DGENRE=
TTITLE0=Smith 1972
TTITLE1=Motion Sickness
TTITLE2=Night out for the Downer
TTITLE3=Prices
TTITLE4=Engine Fire
EXTD=
EXTT0=
EXTT1=
EXTT2=
EXTT3=
EXTT4=
PLAYORDER=
